<?xml version="1.0" encoding="UTF-8" standalone="no"?>
<!-- Uploaded to: SVG Repo, www.svgrepo.com, Generator: SVG Repo Mixer Tools -->

<svg
   fill="#000000"
   width="800px"
   height="800px"
   viewBox="0 0 36 36"
   version="1.1"
   preserveAspectRatio="xMidYMid meet"
   id="svg2"
   sodipodi:docname="popup1.svg"
   inkscape:version="1.4.3 (0d15f75042, 2025-12-25)"
   xmlns:inkscape="http://www.inkscape.org/namespaces/inkscape"
   xmlns:sodipodi="http://sodipodi.sourceforge.net/DTD/sodipodi-0.dtd"
   xmlns="http://www.w3.org/2000/svg"
   xmlns:svg="http://www.w3.org/2000/svg">
  <defs
     id="defs2" />
  <sodipodi:namedview
     id="namedview2"
     pagecolor="#ffffff"
     bordercolor="#000000"
     borderopacity="0.25"
     inkscape:showpageshadow="2"
     inkscape:pageopacity="0.0"
     inkscape:pagecheckerboard="0"
     inkscape:deskcolor="#d1d1d1"
     inkscape:zoom="1.44625"
     inkscape:cx="399.65428"
     inkscape:cy="400"
     inkscape:window-width="2560"
     inkscape:window-height="1366"
     inkscape:window-x="0"
     inkscape:window-y="0"
     inkscape:window-maximized="1"
     inkscape:current-layer="svg2" />
  <title
     id="title1">pop-out-line</title>
  <path
     class="clr-i-outline clr-i-outline-path-1"
     d="M27,33H5a2,2,0,0,1-2-2V9A2,2,0,0,1,5,7H15V9H5V31H27V21h2V31A2,2,0,0,1,27,33Z"
     id="path1"
     style="fill:#ffffff;fill-opacity:1" />
  <path
     class="clr-i-outline clr-i-outline-path-2"
     d="M18,3a1,1,0,0,0,0,2H29.59L15.74,18.85a1,1,0,1,0,1.41,1.41L31,6.41V18a1,1,0,0,0,2,0V3Z"
     id="path2"
     style="fill:#ffffff;fill-opacity:1" />
  <rect
     x="0"
     y="0"
     width="36"
     height="36"
     fill-opacity="0"
     id="rect2" />
</svg>
